<svg xmlns="http://www.w3.org/2000/svg" width="121.622" height="60.603" viewBox="0 0 121.622 60.603"><g id="Group_536" data-name="Group 536" transform="translate(-120 -332.118)"><path id="underline" d="M123.549,485.472,120,492.415h28.39l3.548-6.943Z" transform="translate(0 -99.694)"></path><path id="V" d="M152.924,378.89l-12.769,30.748h-5.012L122.329,378.89h9.238l4.316,11.423,2.135,6.614,2.049-6.614,4.052-11.423Z" transform="translate(-1.514 -30.406)" fill="#ffbc00"></path><g id="Burlington" transform="translate(120.982 332.118)"><path id="Path_212" data-name="Path 212" d="M283.13,347.331h1.861v-5.071c.117-.016.25-.031.4-.044s.291-.019.426-.019a.966.966,0,0,1,.886.374,2.509,2.509,0,0,1,.238,1.274v3.484l1.858-.31,0-3.4a5.062,5.062,0,0,0-.139-1.224,2.42,2.42,0,0,0-.462-.949,2.1,2.1,0,0,0-.881-.618,3.84,3.84,0,0,0-1.392-.218,10.035,10.035,0,0,0-1.574.119,10.422,10.422,0,0,0-1.224.256l0,6.345Z" transform="translate(-227.031 -337.64)" fill="#0064c8"></path><path id="Path_213" data-name="Path 213" d="M265.129,343.989a2.4,2.4,0,0,1-.343,1.367,1.114,1.114,0,0,1-.98.506,1.129,1.129,0,0,1-.986-.506,2.366,2.366,0,0,1-.35-1.367,2.305,2.305,0,0,1,.35-1.355,1.139,1.139,0,0,1,.986-.493,1.125,1.125,0,0,1,.98.493,2.343,2.343,0,0,1,.343,1.355m1.9,0a4.039,4.039,0,0,0-.237-1.411,3.152,3.152,0,0,0-.663-1.086,2.967,2.967,0,0,0-1.018-.7,3.5,3.5,0,0,0-2.6,0,3.036,3.036,0,0,0-1.024.7,3.2,3.2,0,0,0-.675,1.086,3.914,3.914,0,0,0-.244,1.411,4.068,4.068,0,0,0,.238,1.418,3.213,3.213,0,0,0,.663,1.1,2.92,2.92,0,0,0,1.017.706,3.636,3.636,0,0,0,2.649,0,2.916,2.916,0,0,0,1.018-.706,3.061,3.061,0,0,0,.649-1.1,4.257,4.257,0,0,0,.225-1.418" transform="translate(-212.364 -337.594)" fill="#0064c8"></path><path id="Path_214" data-name="Path 214" d="M246.153,341.328a5.245,5.245,0,0,0,.119,1.161,2.15,2.15,0,0,0,.418.893,1.972,1.972,0,0,0,.8.575,3.317,3.317,0,0,0,1.261.206,4.371,4.371,0,0,0,1.012-.1,5.3,5.3,0,0,0,.75-.238l-.262-1.449a3.173,3.173,0,0,1-.581.156,3.55,3.55,0,0,1-.618.056.885.885,0,0,1-.831-.35,1.824,1.824,0,0,1-.206-.936v-2.311h2.236v-1.549h-2.236v-1.936l-1.861.3v5.521Z" transform="translate(-202.993 -334.322)" fill="#0064c8"></path><path id="Path_215" data-name="Path 215" d="M228.359,345.146a2.042,2.042,0,0,1-.425.175,1.861,1.861,0,0,1-.537.075q-1.262,0-1.261-1.561a2.015,2.015,0,0,1,.362-1.237,1.28,1.28,0,0,1,1.1-.487q.251,0,.437.019t.326.044v2.973Zm1.861,1.361v-5.52c-.167-.05-.356-.1-.568-.143s-.435-.085-.667-.119-.47-.061-.707-.081-.469-.031-.692-.031a4.042,4.042,0,0,0-1.411.231,2.945,2.945,0,0,0-1.056.656,2.827,2.827,0,0,0-.656,1.018,3.7,3.7,0,0,0-.225,1.318,3.252,3.252,0,0,0,.724,2.254,2.658,2.658,0,0,0,2.085.806,3.274,3.274,0,0,0,.692-.069,3.014,3.014,0,0,0,.619-.206v.237a1.253,1.253,0,0,1-.331.9,1.511,1.511,0,0,1-1.13.35,5.162,5.162,0,0,1-2.01-.375l-.326,1.561a7.468,7.468,0,0,0,1.112.281,6.863,6.863,0,0,0,1.2.106,3.554,3.554,0,0,0,2.529-.781,3.172,3.172,0,0,0,.817-2.392" transform="translate(-188.745 -337.641)" fill="#0064c8"></path><path id="Path_216" data-name="Path 216" d="M204.109,347.331h1.86v-5.071c.117-.016.251-.031.4-.044s.291-.019.425-.019a.968.968,0,0,1,.886.374,2.51,2.51,0,0,1,.238,1.274v3.484l1.859-.31,0-3.4a4.992,4.992,0,0,0-.139-1.224,2.423,2.423,0,0,0-.461-.949,2.094,2.094,0,0,0-.881-.618,3.838,3.838,0,0,0-1.392-.218,10.022,10.022,0,0,0-1.574.119,10.423,10.423,0,0,0-1.224.256v6.345Z" transform="translate(-175.66 -337.64)" fill="#0064c8"></path><path id="Path_217" data-name="Path 217" d="M193.794,341.713v6.334h1.86v-6.33a1.7,1.7,0,0,1-1.86,0" transform="translate(-168.955 -338.356)" fill="#0064c8"></path><path id="Path_218" data-name="Path 218" d="M194.207,334.119a1.215,1.215,0,1,0,1.216,1.215,1.215,1.215,0,0,0-1.216-1.215" transform="translate(-168.433 -333.419)" fill="#0064c8"></path><path id="Path_219" data-name="Path 219" d="M185.4,340.4a1.673,1.673,0,0,1-.537-.112.755.755,0,0,1-.306-.225.773.773,0,0,1-.144-.337,2.5,2.5,0,0,1-.037-.45v-7.156l-1.86.3v7.231a3.845,3.845,0,0,0,.106.943,1.5,1.5,0,0,0,.4.712,1.956,1.956,0,0,0,.8.456,4.657,4.657,0,0,0,1.318.175Z" transform="translate(-161.626 -332.118)" fill="#0064c8"></path><path id="Path_220" data-name="Path 220" d="M171.725,340.9a2.006,2.006,0,0,0-.362-.106c-.141-.029-.283-.054-.425-.075s-.283-.037-.424-.05-.262-.019-.362-.019a6.787,6.787,0,0,0-1.518.156,11.2,11.2,0,0,0-1.18.331v6.22h1.86v-5.021a2.385,2.385,0,0,1,.369-.069,3.393,3.393,0,0,1,.418-.031,3.641,3.641,0,0,1,.723.068c.226.046.42.09.588.131Z" transform="translate(-151.831 -337.663)" fill="#0064c8"></path><path id="Path_221" data-name="Path 221" d="M151.924,341.041h-1.86v5.071c-.117.017-.251.031-.4.044s-.291.019-.425.019a.944.944,0,0,1-.887-.4,2.663,2.663,0,0,1-.238-1.3v-3.434h-1.86V344.7a5.127,5.127,0,0,0,.139,1.236,2.473,2.473,0,0,0,.461.968,2.115,2.115,0,0,0,.881.631,3.741,3.741,0,0,0,1.392.225,10.059,10.059,0,0,0,1.574-.119,10.264,10.264,0,0,0,1.224-.256v-6.345Z" transform="translate(-138.05 -337.919)" fill="#0064c8"></path><path id="Path_222" data-name="Path 222" d="M127.664,340.89a.926.926,0,0,1-.537.924,3.362,3.362,0,0,1-1.411.25c-.2,0-.384,0-.55-.013s-.321-.021-.461-.037v-2.236h1.224a2.641,2.641,0,0,1,1.287.256.907.907,0,0,1,.448.856m-.337-3.572a.8.8,0,0,1-.387.743,2.65,2.65,0,0,1-1.287.231H124.7v-1.886c.15-.017.32-.027.512-.031s.371-.006.537-.006a2.569,2.569,0,0,1,1.174.212.766.766,0,0,1,.4.738m.887,1.549a1.833,1.833,0,0,0,1-1.636,2.208,2.208,0,0,0-.281-1.155,2.125,2.125,0,0,0-.78-.755,3.58,3.58,0,0,0-1.193-.406,8.974,8.974,0,0,0-1.518-.119q-.612,0-1.323.056a12.487,12.487,0,0,0-1.311.168v8.393a10.062,10.062,0,0,0,1.466.206q.705.044,1.417.044a5.2,5.2,0,0,0,2.954-.687,2.327,2.327,0,0,0,.993-2.048,2.455,2.455,0,0,0-.3-1.211,2.053,2.053,0,0,0-1.125-.849" transform="translate(-122.807 -333.858)" fill="#0064c8"></path></g><g id="Test" transform="translate(152.702 348.484)"><path id="Path_223" data-name="Path 223" d="M216.507,378.89l-3.05,7.726h10.027v23.022H232.3V386.616h8.109l3.049-7.726Z" transform="translate(-213.457 -378.89)"></path><path id="Path_224" data-name="Path 224" d="M300.009,409.1c0,.514-.557.728-1.113.728h-6.763A3.742,3.742,0,0,1,296.2,406.4c2.7,0,3.81,1.5,3.81,2.7m7.577,3.3c0-6.206-4.323-11.43-11.686-11.43a11.405,11.405,0,0,0-11.686,11.687c0,6.506,5.18,11.685,12.371,11.685,7.1,0,10.23-3.724,10.23-3.724l-3.51-4.58a7.431,7.431,0,0,1-5.65,2.223,5.609,5.609,0,0,1-5.607-4.152h15.495c0-.554.042-1.154.042-1.71" transform="translate(-259.456 -393.239)"></path><path id="Path_225" data-name="Path 225" d="M366.169,400.967c-6.678,0-9.759,3.767-9.759,7.7,0,4.965,4.922,6.421,8.3,7.106,2.14.428,3.126.642,3.126,1.626,0,.941-1.37,1.241-2.483,1.241a11.932,11.932,0,0,1-7.362-2.355l-2.361,5.684c.811.428,3.988,2.363,10.322,2.363,6.463,0,9.887-3.552,9.887-7.833,0-2.954-2.054-5.521-5.78-6.72-.556-.171-2.482-.685-3.125-.813-1.926-.385-2.782-.813-2.782-1.5,0-.556.43-1.155,2.568-1.155a9.264,9.264,0,0,1,5.436,1.626l2.1-5.038a15.031,15.031,0,0,0-8.087-1.939" transform="translate(-305.884 -393.242)"></path><path id="Path_226" data-name="Path 226" d="M415.509,385.006v6.184h-1.531l-2.53,6.72h4.06v8.476c0,3.339,1.883,7.575,7.662,7.575a11.787,11.787,0,0,0,7.918-2.76l-3.38-5.607a3.434,3.434,0,0,1-2.268,1.091c-1.241,0-1.713-.856-1.713-2.226V397.91h3.167l2.528-6.869-5.693.149v-6.184Z" transform="translate(-342.169 -382.866)"></path></g></g></svg>